<svg width="129" height="96" viewBox="0 0 129 96" fill="none" xmlns="http://www.w3.org/2000/svg">
<path d="M12.9231 58.4931C6.33984 58.4931 0.984375 53.1376 0.984375 46.5544C0.984375 39.9711 6.33984 34.6156 12.9231 34.6156C13.4259 34.6156 13.9209 34.6001 14.412 34.565C19.3543 34.2454 23.8679 32.3316 27.4499 29.3381C27.485 29.3069 27.5239 29.2758 27.559 29.2446C28.5218 28.43 29.4143 27.5374 30.2289 26.5746C30.2601 26.5396 30.2913 26.5006 30.3225 26.4655C33.316 22.8835 35.2297 18.37 35.5493 13.4276C35.5805 12.9326 35.6 12.4376 35.6 11.9387C35.6 5.35547 40.9555 0 47.5387 0C54.122 0 59.4774 5.35547 59.4774 11.9387C59.4774 12.4415 59.493 12.9365 59.5281 13.4276C59.8477 18.37 61.7615 22.8835 64.755 26.4655C64.7861 26.5006 64.8173 26.5396 64.8485 26.5746C65.6631 27.5374 66.5557 28.43 67.5184 29.2446C67.5535 29.2758 67.5925 29.3069 67.6276 29.3381C71.2057 32.3316 75.7231 34.2454 80.6654 34.565C81.1605 34.5962 81.6555 34.6156 82.1544 34.6156C88.7376 34.6156 94.0931 39.9711 94.0931 46.5544C94.0931 53.1376 88.7376 58.4931 82.1544 58.4931C75.5711 58.4931 70.2157 53.1376 70.2157 46.5544C70.2157 46.0516 70.2001 45.5565 70.165 45.0654C69.8454 40.1231 67.9316 35.6096 64.9382 32.0276L64.8446 31.9184C64.03 30.9557 63.1374 30.0631 62.1747 29.2485C62.1396 29.2173 62.1006 29.1861 62.0655 29.1549C58.4835 26.1615 53.97 24.2477 49.0277 23.9281C48.5327 23.8969 48.0376 23.8774 47.5387 23.8774C47.0398 23.8774 46.5409 23.893 46.0498 23.9281C41.1075 24.2477 36.5939 26.1615 33.0119 29.1549C32.9768 29.1861 32.9379 29.2173 32.9028 29.2485C31.9401 30.0631 31.0475 30.9557 30.2329 31.9184C30.2017 31.9535 30.1705 31.9925 30.1393 32.0276C27.1459 35.6057 25.2321 40.1231 24.9125 45.0654C24.8813 45.5565 24.8618 46.0555 24.8618 46.5544C24.8618 53.1376 19.5063 58.4931 12.9231 58.4931Z" fill="black"/>
<path d="M116.065 37.4375C122.648 37.4375 128.003 42.793 128.003 49.3762C128.003 55.9595 122.648 61.3149 116.065 61.3149C115.562 61.3149 115.067 61.3305 114.576 61.3656C109.633 61.6852 105.12 63.599 101.538 66.5924C101.503 66.6236 101.464 66.6548 101.429 66.686C100.466 67.5006 99.5733 68.3932 98.7586 69.3559C98.7275 69.391 98.6963 69.43 98.6651 69.4651C95.6717 73.0471 93.7579 77.5606 93.4383 82.5029C93.4071 82.9979 93.3876 83.493 93.3876 83.9919C93.3876 90.5751 88.0321 95.9306 81.4489 95.9306C74.8656 95.9306 69.5102 90.5751 69.5102 83.9919C69.5102 83.4891 69.4946 82.994 69.4595 82.5029C69.1399 77.5606 67.2261 73.0471 64.2327 69.4651C64.2015 69.43 64.1703 69.391 64.1391 69.3559C63.3245 68.3932 62.4319 67.5006 61.4692 66.686C61.4341 66.6548 61.3951 66.6236 61.3601 66.5924C57.7819 63.599 53.2645 61.6852 48.3222 61.3656C47.8272 61.3344 47.3322 61.3149 46.8332 61.3149C40.25 61.3149 34.8945 55.9595 34.8945 49.3762C34.8945 42.793 40.25 37.4375 46.8332 37.4375C53.4165 37.4375 58.772 42.793 58.772 49.3762C58.772 49.879 58.7876 50.374 58.8226 50.8651C59.1422 55.8075 61.056 60.321 64.0495 63.903L64.143 64.0121C64.9576 64.9749 65.8502 65.8675 66.813 66.6821C66.848 66.7133 66.887 66.7445 66.9221 66.7756C70.5041 69.7691 75.0177 71.6829 79.96 72.0025C80.455 72.0337 80.95 72.0531 81.4489 72.0531C81.9478 72.0531 82.4467 72.0376 82.9378 72.0025C87.8801 71.6829 92.3937 69.7691 95.9757 66.7756C96.0108 66.7445 96.0497 66.7133 96.0848 66.6821C97.0476 65.8675 97.9401 64.9749 98.7548 64.0121C98.786 63.9771 98.8171 63.9381 98.8483 63.903C101.842 60.3249 103.756 55.8075 104.075 50.8651C104.106 50.374 104.126 49.8751 104.126 49.3762C104.126 42.793 109.481 37.4375 116.065 37.4375Z" fill="black"/>
</svg>